<?xml version="1.0" encoding="iso-8859-1"?>
<!-- Generator: Adobe Illustrator 21.1.0, SVG Export Plug-In . SVG Version: 6.00 Build 0)  -->
<svg version="1.1" id="Layer_1" xmlns="http://www.w3.org/2000/svg" xmlns:xlink="http://www.w3.org/1999/xlink" x="0px" y="0px"
	 viewBox="0 0 24 24" enable-background="new 0 0 24 24" xml:space="preserve">
<g>
	<path fill="#303C42" d="M12,0C5.3828125,0,0,5.3833008,0,12s5.3828125,12,12,12s12-5.3833008,12-12S18.6171875,0,12,0z"/>
	<path fill="#BDDDF4" d="M22.9213867,10.7349854C22.9529419,10.9529409,23,11.7329102,23,12
		c0,1.7879028-2.1984863,3.3878174-5.4019165,4.2731323c0.036377-0.1934814,0.0865479-0.3769531,0.1177368-0.572937
		c0.0429688-0.2729492-0.1425781-0.5288086-0.4160156-0.5722656c-0.2685547-0.0463867-0.5292969,0.1420898-0.5722656,0.4150391
		c-0.0540161,0.3397827-0.1333618,0.6622925-0.203125,0.9923096C15.1348267,16.8300171,13.6033936,17,12,17
		c-1.6068726,0-3.1412964-0.1707153-4.5332031-0.4666748C7.1707764,15.1412964,7,13.6068726,7,12
		c0-1.6030273,0.1698608-3.1340942,0.4645996-4.5234985C7.788208,7.407959,8.1028442,7.3294067,8.4374905,7.2758789
		c0.2724705-0.043457,0.4580173-0.2998047,0.4150486-0.5727539C8.8076172,6.4306641,8.5576172,6.2416992,8.2792969,6.2885742
		C8.0897217,6.3187866,7.9137573,6.3674927,7.7268066,6.4025269C8.6121826,3.1989136,10.2123413,1,12,1
		c0.2685547,0,1.1000004,0.0588236,1.2706909,0.0794678C18.3231201,1.6641235,22.3392944,5.6817627,22.9213867,10.7349854z"/>
	<path fill="#E53A35" d="M6.3843994,16.2682495C6.1395264,14.9459839,6,13.5130615,6,12
		c0-1.5651245,0.1478271-3.0458984,0.4089966-4.4052734C6.260376,7.5396118,6.1309204,7.4395142,6.0888672,7.2744141
		C6.0205078,7.0068359,6.1816406,6.734375,6.4492188,6.6660156c0.0546875-0.0139771,0.1156616-0.0216064,0.1708374-0.0352173
		c0.5510864-2.2493896,1.4377441-4.0841064,2.543457-5.246521C5.7140503,2.307373,2.9318848,4.864563,1.6978149,8.173584
		C1.671936,8.243103,1.6456909,8.312439,1.6212769,8.3826294C1.5488281,8.5897217,1.4819336,8.7993774,1.421814,9.0118408
		C1.3973999,9.0985107,1.376709,9.1866455,1.3543701,9.2741089c-0.1220093,0.4759521-0.2183228,0.9622803-0.2757568,1.4608765
		c-0.0084229,0.1692505-0.0344238,0.4938965-0.0545044,0.7871704C1.0172119,11.6817627,1,11.8386841,1,12
		C1,13.7846069,3.1905518,15.381958,6.3843994,16.2682495z"/>
	<path fill="#303C42" d="M15.4941406,4.2036133c0.0849609,0.1826172,0.265625,0.2900391,0.4541016,0.2900391
		c0.0703125,0,0.1416016-0.0146484,0.2099609-0.0463867c0.2509766-0.1157227,0.359375-0.4130859,0.2441406-0.6635742
		c-0.2861328-0.6186523-0.6074219-1.1767578-0.9550781-1.6601563c-0.1621094-0.2250977-0.4765625-0.2749023-0.6982422-0.1137695
		c-0.2246094,0.1611328-0.2753906,0.4736328-0.1142578,0.6977539C14.9453125,3.1391602,15.2353516,3.6425781,15.4941406,4.2036133z"
		/>
	<path fill="#303C42" d="M17.4638672,10.578125c-0.2753906,0.0107422-0.4912109,0.2426758-0.4804688,0.5185547
		C16.9951172,11.394043,17.0009766,11.6948242,17,12c0,0.2973633-0.0058594,0.5913086-0.0166016,0.8828125
		c-0.0097656,0.2758789,0.2060547,0.5078125,0.4824219,0.5175781c0.0058594,0.0004883,0.0117188,0.0004883,0.0175781,0.0004883
		c0.2685547,0,0.4902344-0.2119141,0.5-0.4819336C17.9941406,12.6157227,18,12.309082,18,12.0014648
		c0.0009766-0.3173828-0.0048828-0.6318359-0.0166016-0.9428711C17.9726563,10.7832031,17.7832031,10.5615234,17.4638672,10.578125z
		"/>
	<path fill="#303C42" d="M12.9208984,6.0170898C12.6171875,6.0053711,12.3095703,6,12.0009766,6
		c-0.3144531-0.0029297-0.6318359,0.0053711-0.9433594,0.0175781c-0.2753906,0.0107422-0.4912109,0.2426758-0.4804688,0.5185547
		c0.0107422,0.2695313,0.2324219,0.480957,0.5,0.480957c0.0058594,0,0.0126953,0,0.0195313-0.0004883
		C11.3818359,7.0058594,11.6708984,7,11.9648438,7c0.3125,0.003418,0.6152344,0.0048828,0.9189453,0.0161133
		c0.2714844,0.0336914,0.5078125-0.2045898,0.5185547-0.4804688C13.4121094,6.2592773,13.1972656,6.0273438,12.9208984,6.0170898z"
		/>
	<path fill="#303C42" d="M19.7773438,8.4970703c0.5634766,0.2597656,1.0673828,0.5478516,1.4980469,0.8564453
		c0.0878906,0.0634766,0.1894531,0.09375,0.2910156,0.09375c0.1552734,0,0.3085938-0.0727539,0.40625-0.2089844
		c0.1611328-0.2241211,0.109375-0.5366211-0.1152344-0.6972656C21.3759766,8.1953125,20.8164063,7.875,20.1953125,7.5888672
		c-0.2480469-0.1142578-0.5478516-0.0068359-0.6630859,0.2446289C19.4169922,8.0844727,19.5263672,8.3813477,19.7773438,8.4970703z"
		/>
	<path fill="#303C42" d="M15.7001953,6.284668c-0.2695313-0.0478516-0.5292969,0.1420898-0.5722656,0.4155273
		c-0.0429688,0.2729492,0.1435547,0.5288086,0.4160156,0.5717773c0.3358765,0.0531616,0.6551514,0.1322632,0.9818115,0.2012329
		c0.0678711,0.3207397,0.145874,0.6334229,0.1988525,0.9633179c0.0400391,0.2460938,0.2519531,0.4208984,0.4931641,0.4208984
		c0.0263672,0,0.0537109-0.0019531,0.0800781-0.0063477c0.2724609-0.0439453,0.4580078-0.300293,0.4150391-0.5727539
		c-0.0378418-0.2357788-0.097229-0.4570313-0.1425781-0.6888428c0.1495972-0.0548706,0.2799683-0.1555176,0.3222656-0.3214111
		c0.0683594-0.2675781-0.09375-0.5400391-0.3613281-0.6079102c-0.0515137-0.0131226-0.1082153-0.0200806-0.1600952-0.0328369
		c-0.0143433-0.0582275-0.0223999-0.1218262-0.0371704-0.1795654c-0.0683594-0.2675781-0.3369141-0.4296875-0.6083984-0.3603516
		c-0.173584,0.0443726-0.2940063,0.1778564-0.3444214,0.3369141C16.1519775,6.380127,15.9329834,6.3213501,15.7001953,6.284668z"/>
	<path fill="#BDDDF4" d="M1.3842773,14.8363647c1.0130615,3.7860718,3.9931641,6.7661743,7.7792358,7.7793579
		c-1.1043091-1.1609497-1.9902344-2.9923706-2.5414429-5.237854C4.3766479,16.8266602,2.5452271,15.9407349,1.3842773,14.8363647z
		 M17.3707886,17.3795166c-0.0120239,0.0488281-0.0186157,0.1022949-0.0309448,0.1507568
		c-0.0576172,0.2265625-0.2607422,0.3769531-0.484375,0.3769531c-0.0400391,0-0.0820313-0.0048828-0.1230469-0.015625
		c-0.1600952-0.0405884-0.274231-0.1577148-0.3320923-0.2997437C15.0422363,17.852478,13.5631714,18,12,18
		c-1.5130005,0-2.9458618-0.1395264-4.2681274-0.3843994C8.6182861,20.8093872,10.2157593,23,12,23
		c0.2498169,0,0.4942627-0.0209351,0.7399292-0.0373535c0.2104492-0.0146484,0.4121094-0.0303345,0.5250244-0.0412598
		c0.4985962-0.0574341,0.9849243-0.1537476,1.4609375-0.2757568c0.0874634-0.0223389,0.1755981-0.0430298,0.2622681-0.0674438
		c0.2125244-0.0601196,0.4221802-0.1270142,0.6292114-0.1994629c0.0701904-0.0244751,0.1395264-0.0507813,0.2091064-0.0765991
		c3.309021-1.2340698,5.866272-4.0162354,6.7892456-7.4657593C21.4535522,15.9418945,19.6193848,16.8284302,17.3707886,17.3795166z"
		/>
	<path fill="#BDDDF4" d="M6.3843994,16.2682495C6.1395264,14.9459839,6,13.5130615,6,12
		c0-1.5651245,0.1478271-3.0458984,0.4089966-4.4052734C6.260376,7.5396118,6.1309204,7.4395142,6.0888672,7.2744141
		C6.0205078,7.0068359,6.1816406,6.734375,6.4492188,6.6660156c0.0546875-0.0139771,0.1156616-0.0216064,0.1708374-0.0352173
		c0.5510864-2.2493896,1.4377441-4.0841064,2.543457-5.246521C5.7140503,2.307373,2.9318848,4.864563,1.6978149,8.173584
		C1.671936,8.243103,1.6456909,8.312439,1.6212769,8.3826294C1.5488281,8.5897217,1.4819336,8.7993774,1.421814,9.0118408
		C1.3973999,9.0985107,1.376709,9.1866455,1.3543701,9.2741089c-0.1220093,0.4759521-0.2183228,0.9622803-0.2757568,1.4608765
		c-0.0084229,0.1692505-0.0344238,0.4938965-0.0545044,0.7871704C1.0172119,11.6817627,1,11.8386841,1,12
		C1,13.7846069,3.1905518,15.381958,6.3843994,16.2682495z"/>
	<path fill="#303C42" d="M16.1669922,19.5332031c-0.2509766-0.1166992-0.5478516-0.0068359-0.6640625,0.2436523
		c-0.2607422,0.5654297-0.5498047,1.0693359-0.8564453,1.4990234c-0.1611328,0.2246094-0.109375,0.5371094,0.1152344,0.6977539
		c0.0878906,0.0629883,0.1894531,0.0932617,0.2910156,0.0932617c0.1552734,0,0.3085938-0.0727539,0.40625-0.2089844
		c0.34375-0.4804688,0.6640625-1.0395508,0.9521484-1.6611328C16.5263672,19.9458008,16.4179688,19.6489258,16.1669922,19.5332031z"
		/>
	<path fill="#303C42" d="M2.4160156,9.4594727c0.1015625,0,0.2041016-0.0307617,0.2919922-0.0942383
		c0.4296875-0.3095703,0.9335938-0.5986328,1.4960938-0.8598633c0.2509766-0.1162109,0.359375-0.4135742,0.2431641-0.6640625
		c-0.1152344-0.25-0.4160156-0.359375-0.6630859-0.2431641c-0.6210938,0.2875977-1.1796875,0.609375-1.6601563,0.9555664
		C1.8994141,8.7148438,1.8486328,9.0273438,2.0107422,9.2514648C2.1083984,9.387207,2.2607422,9.4594727,2.4160156,9.4594727z"/>
	<linearGradient id="SVGID_1_" gradientUnits="userSpaceOnUse" x1="1.1248534" y1="6.9288359" x2="22.8751469" y2="17.0711651">
		<stop  offset="0" style="stop-color:#FFFFFF;stop-opacity:0.2"/>
		<stop  offset="1" style="stop-color:#FFFFFF;stop-opacity:0"/>
	</linearGradient>
	<path fill="url(#SVGID_1_)" d="M12,0C5.3828125,0,0,5.3833008,0,12s5.3828125,12,12,12s12-5.3833008,12-12S18.6171875,0,12,0z"/>
</g>
<g>
</g>
<g>
</g>
<g>
</g>
<g>
</g>
<g>
</g>
<g>
</g>
<g>
</g>
<g>
</g>
<g>
</g>
<g>
</g>
<g>
</g>
<g>
</g>
<g>
</g>
<g>
</g>
<g>
</g>
</svg>
